<svg xmlns="http://www.w3.org/2000/svg" width="21.1" height="21.566" viewBox="0 0 21.1 21.566">
  <g id="Group_1806" data-name="Group 1806" transform="translate(1724.737 241.443)">
    <path id="Path_506" data-name="Path 506" d="M73.274,12.163a5.846,5.846,0,0,0,4.986-6.081C78.261,2.723,77.807,0,73.274,0s-4.986,2.723-4.986,6.081A5.846,5.846,0,0,0,73.274,12.163Z" transform="translate(-1788.75 -241.443)" fill="#fff"/>
    <path id="Path_507" data-name="Path 507" d="M190.712,199.313h-8.646a.346.346,0,0,0-.345.345v5.548a.346.346,0,0,0,.345.345h2.951l-.1.412a5.494,5.494,0,0,1-.325.935.345.345,0,0,0,.314.489h2.977a.345.345,0,0,0,.314-.489,5.506,5.506,0,0,1-.325-.935l-.1-.412h2.951a.346.346,0,0,0,.345-.345v-5.548A.345.345,0,0,0,190.712,199.313Zm-.552,5.457h-.43v-.085a.228.228,0,1,0-.455,0v.085h-.287v-.085a.228.228,0,1,0-.455,0v.085h-5.914v-4.676h7.542Z" transform="translate(-1894.695 -427.598)"/>
    <path id="Path_508" data-name="Path 508" d="M14.532,183.136v-5.548a1.106,1.106,0,0,1,1.1-1.1h1.684c-.542-.293-1.043-.561-1.392-.747l-.022-.012a.349.349,0,0,0-.381.033,4.544,4.544,0,0,1-1.824.881.35.35,0,0,0-.251.217l-.662,1.745-.662-1.745a.35.35,0,0,0-.251-.217,4.543,4.543,0,0,1-1.824-.881.35.35,0,0,0-.381-.033c-1.057.564-3.591,1.93-4.307,2.412-1.21.816-1.739,3.766-1.833,4.349a.35.35,0,0,0,.016.172c.043.122,1.154,2.994,9.241,2.994a23.449,23.449,0,0,0,4.613-.4,1.1,1.1,0,0,1,.066-.739c.041-.09.079-.181.112-.27H15.636A1.105,1.105,0,0,1,14.532,183.136Z" transform="translate(-1728.265 -405.528)"/>
    <path id="Path_509" data-name="Path 509" d="M190.712,199.313h-8.646a.346.346,0,0,0-.345.345v5.548a.346.346,0,0,0,.345.345h2.951l-.1.412a5.494,5.494,0,0,1-.325.935.345.345,0,0,0,.314.489h2.977a.345.345,0,0,0,.314-.489,5.506,5.506,0,0,1-.325-.935l-.1-.412h2.951a.346.346,0,0,0,.345-.345v-5.548A.345.345,0,0,0,190.712,199.313Zm-.552,5.457h-.43v-.085a.228.228,0,1,0-.455,0v.085h-.287v-.085a.228.228,0,1,0-.455,0v.085h-5.914v-4.676h7.542Z" transform="translate(-1894.695 -427.598)" fill="#fff"/>
    <path id="Path_510" data-name="Path 510" d="M14.532,183.136v-5.548a1.106,1.106,0,0,1,1.1-1.1h1.684c-.542-.293-1.043-.561-1.392-.747l-.022-.012a.349.349,0,0,0-.381.033,4.544,4.544,0,0,1-1.824.881.35.35,0,0,0-.251.217l-.662,1.745-.662-1.745a.35.35,0,0,0-.251-.217,4.543,4.543,0,0,1-1.824-.881.35.35,0,0,0-.381-.033c-1.057.564-3.591,1.93-4.307,2.412-1.21.816-1.739,3.766-1.833,4.349a.35.35,0,0,0,.016.172c.043.122,1.154,2.994,9.241,2.994a23.449,23.449,0,0,0,4.613-.4,1.1,1.1,0,0,1,.066-.739c.041-.09.079-.181.112-.27H15.636A1.105,1.105,0,0,1,14.532,183.136Z" transform="translate(-1728.265 -405.528)" fill="#fff"/>
  </g>
</svg>
