<svg xmlns="http://www.w3.org/2000/svg" width="23" height="23.065" viewBox="0 0 23 23.065"><defs><style>.a{fill:#fff;font-size:6px;font-family:GTWalsheimPro-Bold, GT Walsheim Pro Bold;font-weight:700;}</style></defs><g transform="translate(-1192 -115.935)"><path d="M28.721,23.7H15.344V22.033H28.721Zm0,1.672H15.344v1.672H28.721Zm3.344-10.033V32.065H12V15.344h3.344V13.672a1.672,1.672,0,0,1,3.344,0v1.672h6.688V13.672a1.672,1.672,0,0,1,3.344,0v1.672Zm-6.688,1.672a1.672,1.672,0,0,0,3.344,0Zm-10.033,0a1.672,1.672,0,0,0,3.344,0Zm15.049,3.344H13.672V30.393H30.393Z" transform="translate(1180 103.935)"/><rect width="14" height="8" rx="4" transform="translate(1201 131)"/><text class="a" transform="translate(1203 137)"><tspan x="0" y="0">ALL</tspan></text></g></svg>