<svg xmlns="http://www.w3.org/2000/svg" width="14.934" height="13.187" viewBox="0 0 14.934 13.187"><g transform="translate(-56.25 -79.61)"><g transform="translate(56.25 79.61)"><g transform="translate(0 0)"><path d="M59.343,82.31H56.709a.459.459,0,0,1-.459-.459V80.069a.459.459,0,0,1,.459-.459h2.633a.459.459,0,0,1,.459.459v1.782A.459.459,0,0,1,59.343,82.31Z" transform="translate(-56.25 -79.61)"/></g><g transform="translate(6.092 0)"><path d="M227.593,82.31h-7.924a.459.459,0,0,1-.459-.459V80.069a.459.459,0,0,1,.459-.459h7.924a.459.459,0,0,1,.459.459v1.782A.459.459,0,0,1,227.593,82.31Z" transform="translate(-219.21 -79.61)"/></g><g transform="translate(0 5.244)"><path d="M59.343,222.59H56.709a.459.459,0,0,1-.459-.459v-1.782a.459.459,0,0,1,.459-.459h2.633a.459.459,0,0,1,.459.459v1.782A.459.459,0,0,1,59.343,222.59Z" transform="translate(-56.25 -219.89)"/></g><g transform="translate(6.092 5.244)"><path d="M227.593,222.59h-7.924a.459.459,0,0,1-.459-.459v-1.782a.459.459,0,0,1,.459-.459h7.924a.459.459,0,0,1,.459.459v1.782A.459.459,0,0,1,227.593,222.59Z" transform="translate(-219.21 -219.89)"/></g><g transform="translate(0 10.488)"><path d="M59.343,362.87H56.709a.459.459,0,0,1-.459-.459v-1.782a.459.459,0,0,1,.459-.459h2.633a.459.459,0,0,1,.459.459v1.782A.459.459,0,0,1,59.343,362.87Z" transform="translate(-56.25 -360.17)"/></g><g transform="translate(6.092 10.488)"><path d="M227.593,362.87h-7.924a.459.459,0,0,1-.459-.459v-1.782a.459.459,0,0,1,.459-.459h7.924a.459.459,0,0,1,.459.459v1.782A.459.459,0,0,1,227.593,362.87Z" transform="translate(-219.21 -360.17)"/></g></g></g></svg>