<svg xmlns="http://www.w3.org/2000/svg" width="31.329" height="31.329" viewBox="0 0 31.329 31.329">
  <path id="check" d="M12.5,20.81a.981.981,0,0,0,.429.81,2.5,2.5,0,0,0,.706.358c.475.07,5.92.651,9.491,1.029l-.257,2.434c-2.781-.294-9.291-.984-9.668-1.054a4.709,4.709,0,0,1-1.65-.744,3.428,3.428,0,0,1-.809-.774l-.011.011L4.862,17.117a1.224,1.224,0,0,0-1.714,1.747l9.083,8.913a3.835,3.835,0,0,0,2.7,1.105H31.663V31.33H14.933a6.272,6.272,0,0,1-4.417-1.805L1.433,20.611A3.672,3.672,0,0,1,6.577,15.37l3.89,3.818A3.452,3.452,0,0,1,11.841,17.8,9.909,9.909,0,0,1,23.227,1.6L21.51,3.418A7.464,7.464,0,1,0,25.3,10.1L27.51,7.759a9.906,9.906,0,0,1-3.359,9.787A14.43,14.43,0,0,1,30.4,20.09l1.264.9V24L28.974,22.08A12,12,0,0,0,22.1,19.829h-.152l-8.466,0a.98.98,0,0,0-.98.979Zm1.95-13.5L12.768,9.08l5.338,5.075L28.025,3.649l-1.78-1.68-8.232,8.72Zm0,0" transform="translate(-0.333 0)"/>
</svg>
