<svg xmlns="http://www.w3.org/2000/svg" width="14.856" height="18.371" viewBox="0 0 14.856 18.371"><defs><style>.a{fill:#ffed00;}</style></defs><g transform="translate(-46.155)"><g transform="translate(46.155)"><path class="a" d="M58.912,2.2h-2.86a2.486,2.486,0,0,0-4.939,0h-2.86a2.1,2.1,0,0,0-2.1,2.1v.108a2.1,2.1,0,0,0,1.326,1.95v9.915a2.1,2.1,0,0,0,2.1,2.1h8.006a2.1,2.1,0,0,0,2.1-2.1V6.357a2.1,2.1,0,0,0,1.326-1.95V4.3A2.1,2.1,0,0,0,58.912,2.2ZM53.583,1A1.494,1.494,0,0,1,55.047,2.2H52.119A1.494,1.494,0,0,1,53.583,1Zm5.106,15.277a1.1,1.1,0,0,1-1.1,1.1H49.58a1.1,1.1,0,0,1-1.1-1.1V6.506H58.689ZM60.015,4.408a1.1,1.1,0,0,1-1.1,1.1H48.254a1.1,1.1,0,0,1-1.1-1.1V4.3a1.1,1.1,0,0,1,1.1-1.1H58.912a1.1,1.1,0,0,1,1.1,1.1v.108Z" transform="translate(-46.155)"/><path class="a" d="M158.573,256.17a.5.5,0,0,0,.5-.5v-5.6a.5.5,0,1,0-1,0v5.6A.5.5,0,0,0,158.573,256.17Z" transform="translate(-153.813 -240.067)"/><path class="a" d="M228.643,256.17a.5.5,0,0,0,.5-.5v-5.6a.5.5,0,1,0-1,0v5.6A.5.5,0,0,0,228.643,256.17Z" transform="translate(-221.215 -240.067)"/><path class="a" d="M298.712,256.17a.5.5,0,0,0,.5-.5v-5.6a.5.5,0,1,0-1,0v5.6A.5.5,0,0,0,298.712,256.17Z" transform="translate(-288.616 -240.067)"/></g></g></svg>
