<svg xmlns="http://www.w3.org/2000/svg" width="17.717" height="21.91" viewBox="0 0 17.717 21.91"><defs><style>.a{fill:#fff;}</style></defs><g transform="translate(0)"><path class="a" d="M61.37,2.625h-3.41a2.965,2.965,0,0,0-5.891,0H48.658a2.506,2.506,0,0,0-2.5,2.5v.128a2.505,2.505,0,0,0,1.582,2.325V19.407a2.506,2.506,0,0,0,2.5,2.5h9.548a2.506,2.506,0,0,0,2.5-2.5V7.582a2.506,2.506,0,0,0,1.582-2.325V5.128A2.506,2.506,0,0,0,61.37,2.625ZM55.014,1.187A1.782,1.782,0,0,1,56.76,2.625H53.268A1.782,1.782,0,0,1,55.014,1.187ZM61.1,19.407a1.318,1.318,0,0,1-1.316,1.316H50.24a1.318,1.318,0,0,1-1.316-1.316V7.76H61.1Zm1.582-14.15a1.318,1.318,0,0,1-1.316,1.316H48.658a1.318,1.318,0,0,1-1.316-1.316V5.128a1.318,1.318,0,0,1,1.316-1.316H61.37a1.318,1.318,0,0,1,1.316,1.316v.128Z" transform="translate(-46.155)"/><path class="a" d="M158.669,257.441a.594.594,0,0,0,.594-.594v-6.683a.594.594,0,1,0-1.187,0v6.683A.594.594,0,0,0,158.669,257.441Z" transform="translate(-152.992 -238.237)"/><path class="a" d="M228.739,257.441a.594.594,0,0,0,.594-.594v-6.683a.594.594,0,0,0-1.187,0v6.683A.594.594,0,0,0,228.739,257.441Z" transform="translate(-219.88 -238.237)"/><path class="a" d="M298.808,257.441a.594.594,0,0,0,.594-.594v-6.683a.594.594,0,1,0-1.187,0v6.683A.594.594,0,0,0,298.808,257.441Z" transform="translate(-286.767 -238.237)"/></g></svg>