<svg xmlns="http://www.w3.org/2000/svg" width="19.343" height="22.118" viewBox="0 0 19.343 22.118"><path d="M23.372,17.605H16V15.762h7.373Zm0,1.843H16v1.843h7.373Zm0,3.686H16v1.843h7.373Zm6.934,9.709a4.607,4.607,0,0,1-7.773-2.337H12.313V12.076H27.058v12.9a4.608,4.608,0,0,1,3.248,7.866ZM23.79,26.328a4.593,4.593,0,0,1,1.425-.969l.018-11.439H14.138l.018,14.745h8.377A4.585,4.585,0,0,1,23.79,26.328Zm6.561,2-1.307-1.307-2.615,2.615L25.12,28.329l-1.307,1.308,1.307,1.308,1.308,1.307,1.307-1.307Z" transform="translate(-12.313 -12.076)"/></svg>