<svg xmlns="http://www.w3.org/2000/svg" width="11.83" height="10.351" viewBox="0 0 11.83 10.351"><defs><style>.a{fill:#fff;}</style></defs><g transform="translate(0 -31.998)"><g transform="translate(0 32.738)"><g transform="translate(0 0)"><path class="a" d="M8.133,69.2v2.935H1.479V65.481H3.7V64H.739A.74.74,0,0,0,0,64.741v8.133a.739.739,0,0,0,.739.739H8.873a.739.739,0,0,0,.739-.739V69.2Z" transform="translate(0 -64.002)"/></g></g><g transform="translate(2.958 31.998)"><g transform="translate(0 0)"><path class="a" d="M136.725,34.291l-2.958-2.218a.37.37,0,0,0-.592.3v1.109h-1.109A4.071,4.071,0,0,0,128,37.544a.37.37,0,0,0,.7.166l.087-.174a3.309,3.309,0,0,1,2.976-1.84h1.412V36.8a.37.37,0,0,0,.592.3l2.958-2.218a.37.37,0,0,0,0-.592Z" transform="translate(-128 -31.998)"/></g></g></g></svg>