<svg xmlns="http://www.w3.org/2000/svg" width="16.013" height="16.013" viewBox="0 0 16.013 16.013"><g transform="translate(0 -0.002)"><path d="M.558,4.842a.558.558,0,0,0,.558-.558V1.906L4.707,5.5A.558.558,0,1,0,5.5,4.709L1.9,1.117H4.282A.558.558,0,1,0,4.282,0H.558A.558.558,0,0,0,0,.56V4.284A.558.558,0,0,0,.558,4.842Z"/><path d="M142.966,138.682a.558.558,0,0,0-.558.558v2.378l-3.7-3.7a.558.558,0,0,0-.789.789l3.7,3.7h-2.378a.558.558,0,0,0,0,1.115h3.724a.558.558,0,0,0,.558-.558V139.24A.558.558,0,0,0,142.966,138.682Z" transform="translate(-127.511 -127.507)"/><path d="M4.822,137.915l-3.7,3.7V139.24a.558.558,0,1,0-1.115,0v3.724a.558.558,0,0,0,.558.558H4.287a.558.558,0,1,0,0-1.115H1.909l3.7-3.7a.558.558,0,1,0-.789-.789Z" transform="translate(-0.005 -127.507)"/><path d="M144.349,0h-3.724a.558.558,0,1,0,0,1.115H143l-3.591,3.592a.558.558,0,0,0,.789.789l3.591-3.592V4.284a.558.558,0,1,0,1.115,0V.56A.558.558,0,0,0,144.349,0Z" transform="translate(-128.894 0)"/></g></svg>