<svg xmlns="http://www.w3.org/2000/svg" width="23.994" height="20.991" viewBox="0 0 23.994 20.991"><defs><style>.a{fill:#fff;}</style></defs><g transform="translate(0 -1.009)"><path class="a" d="M23.244,17.009H.75a.778.778,0,0,0-.75.8v3.421A.762.762,0,0,0,.75,22H23.244a.761.761,0,0,0,.75-.77V17.81A.778.778,0,0,0,23.244,17.009Zm0-8H.75a.778.778,0,0,0-.75.8v3.421A.761.761,0,0,0,.75,14H23.244a.76.76,0,0,0,.75-.769V9.81A.778.778,0,0,0,23.244,9.009Zm0-8H.75a.778.778,0,0,0-.75.8V5.23A.762.762,0,0,0,.75,6H23.244a.761.761,0,0,0,.75-.769V1.81A.778.778,0,0,0,23.244,1.009Z"/></g></svg>