<svg xmlns="http://www.w3.org/2000/svg" width="145" height="45" viewBox="0 0 145 45"><defs><style>.a{fill:#ea1c0a;}</style></defs><path class="a" d="M140.348,36.45c-.873,2.773-1.6,4.934-1.889,5.731-.625,1.737-1.817,1.982-3.37,1.982a9.71,9.71,0,0,1-5.944-1.579,1.056,1.056,0,0,1-.291-1.133c.319-1.026.929-2.866,1.614-5m-18.668,0c-2.542,2.832-4.489,5.2-5.331,6.195-.9,1.07-2.222,1.292-3.778,1.292a10.134,10.134,0,0,1-4.14-1.178c-.61-.332-.625-.7-.45-1.47l.507-2.189c.146-.632.392-1.542.712-2.647H111.8Zm-19.744,0c-5.171,7.773-11.723,7.713-19,7.713-3.965,0-12.783.046-12.9-7.713Zm-73.348,0a8.352,8.352,0,0,0,4.475,1.3,9.585,9.585,0,0,0,4.794-1.3H45.832c-.741,3.513-11.056,8.669-19.773,8.669-9.123,0-17.636-3.513-22.256-8.673H18.708ZM59.3,23.236a20.37,20.37,0,0,1-1.337,4.443c-1.061,2.759-3.82,3.2-5.782,3.2-2.92,0-3.923-1.111-3.923-2.868a13.553,13.553,0,0,1,1.221-4.049c1.322-3.193,3.675-3.543,6-3.543,1.976,0,3.821.869,3.821,2.812M34.281,16.488c0-2.034-.087-4.95-1.583-4.95-4.9,0-13.482,7.922-14.339,8.832-.64.674-.174.62.683.62h11c3.892,0,4.241-.7,4.241-4.5Zm47.855.733c-1.019,0-2.543.168-3.241,1.178-2.585,3.8-4.3,13.283-4.3,15.918,0,1.8,1.191,1.688,2.761,1.688.929,0,2.41.025,3.24-.9,2.281-2.511,4.242-13.872,4.242-15.922,0-1.46-.1-1.964-2.7-1.964Zm17.185,19.23c1.7-5.88,5.564-17.433,8.368-24.18.145-.341.275-.624,1-.742a14.8,14.8,0,0,1,2.978-.326,10.839,10.839,0,0,1,4.417.709s.016-.018.016,1.933c0,.847.086,3.714,2.629,3.714,4.315,0,12.115-7.818,19.016-7.818,6.073,0,7.438,3.963,7.438,7.031,0,3.594-2.818,13.272-4.838,19.682H130.47c1.525-4.8,3.429-11.081,3.429-12.867,0-1.421-.393-2.481-1.729-2.481-5.621,0-14.542,8.868-20.368,15.353l-12.481-.01Zm-39.166,0v-.164c0-3.544,2.92-10.039,5.3-16.2C66.489,17.47,70.818,8.67,85.593,8.67c6.1,0,13.658,1.011,13.658,8.042,0,4.332-4.039,13.841-5.347,16.481a28.934,28.934,0,0,1-1.844,3.256h-31.9Zm-32.179,0a10.587,10.587,0,0,0,2.644-2.112s4.8-.58,7.859-.58c2.993,0,7.38.5,7.38,2.307a3.8,3.8,0,0,1-.028.38H27.976Zm-24.173,0a12.912,12.912,0,0,1-3.618-8.6C.185,12.032,29.008.119,37.42.119c7.568,0,8.6,12.769,8.6,17.438,0,9.971-5.781,12.035-12.217,12.035H29.3c-4.519,0-13.6-.28-13.6-.28-.726-.016-1.279-.169-1.279.28a8.937,8.937,0,0,0,4.287,6.859Z" transform="translate(-0.185 -0.119)"/></svg>