<svg xmlns="http://www.w3.org/2000/svg" width="27.313" height="27.313" viewBox="0 0 27.313 27.313"><circle cx="1.5" cy="1.5" r="1.5" transform="translate(5.625 19)"/><path d="M28.491,5.819a1.433,1.433,0,0,0-2.011.013,1.434,1.434,0,0,0,.014-2.013,9.333,9.333,0,0,0-14.869,7.524c0,.185.033.362.045.545-.484.344-4.159,3.086-6.121,4.745A7.288,7.288,0,0,0,3,22.125a7.17,7.17,0,0,0,12.666,4.623c1.686-1.977,4.427-5.639,4.768-6.079.173-.014.349.019.535.019A9.33,9.33,0,0,0,28.491,5.819Zm-18.3,20.618a4.313,4.313,0,0,1-4.312-4.312A4.371,4.371,0,0,1,7.4,18.83c3.4-2.878,5.2-3.95,7.353-5.772a6.388,6.388,0,0,1,6.211-8.184,6.365,6.365,0,0,1,1.925.325L18.813,9.188l.719,3.594,3.594.719,4.032-3.94a6.359,6.359,0,0,1,.28,1.784,6.469,6.469,0,0,1-6.469,6.469,6.376,6.376,0,0,1-1.715-.259c-1.821,2.153-2.894,3.95-5.785,7.338A4.285,4.285,0,0,1,10.188,26.438ZM26.552,8.14l-3.888,3.8-1.91-.382L20.375,9.67l3.919-3.828A6.451,6.451,0,0,1,26.552,8.14Z" transform="translate(-3 -2)"/></svg>