<svg xmlns="http://www.w3.org/2000/svg" width="30" height="30" viewBox="0 0 30 30"><defs><style>.a{fill:#111;fill-rule:evenodd;}</style></defs><path class="a" d="M54.182,38.121a1.562,1.562,0,1,0,1.563-1.562A1.563,1.563,0,0,0,54.182,38.121ZM43.257,60.207a2.462,2.462,0,0,0,3.493,0L62.025,45.033a3.075,3.075,0,0,0,.907-2.225V34.034a3.1,3.1,0,0,0-3.1-3.1H51.057a3.073,3.073,0,0,0-2.225.906L33.658,47.114a2.463,2.463,0,0,0,0,3.494Zm8.425-22.086a4.062,4.062,0,1,1,4.062,4.062A4.062,4.062,0,0,1,51.682,38.121Z" transform="translate(-32.932 -30.934)"/></svg>