<svg xmlns="http://www.w3.org/2000/svg" width="19.922" height="16.58" viewBox="0 0 19.922 16.58"><defs><style>.a{fill:#fff;fill-rule:evenodd;}</style></defs><path class="a" d="M9.929,11.119C8.31,11.119-.031,4.4-.031,4.4V3.658A1.659,1.659,0,0,1,1.629,2h16.6a1.659,1.659,0,0,1,1.66,1.658l-.013.829S11.626,11.119,9.929,11.119Zm0,2.28c1.775,0,9.948-6.425,9.948-6.425l.013,9.948a1.659,1.659,0,0,1-1.66,1.658H1.629a1.659,1.659,0,0,1-1.66-1.658l.013-9.948S8.31,13.4,9.929,13.4Z" transform="translate(0.031 -2)"/></svg>