<svg xmlns="http://www.w3.org/2000/svg" width="18.561" height="18.561" viewBox="0 0 18.561 18.561"><defs><style>.a{fill:#fff;}</style></defs><path class="a" d="M15.081,0H12.76V2.32h2.32ZM17.4,0h-1.16V3.48H11.6V0H6.96V3.48H2.32V0H1.16A1.16,1.16,0,0,0,0,1.16V17.4a1.159,1.159,0,0,0,1.16,1.16H17.4a1.159,1.159,0,0,0,1.16-1.16V1.16A1.16,1.16,0,0,0,17.4,0Zm-1.16,16.241H2.32V5.8H16.241ZM5.8,0H3.48V2.32H5.8Zm4.64,8.12H8.12v2.32h2.32Zm3.48,0H11.6v2.32h2.32ZM6.96,11.6H4.64v2.32H6.96Zm0-3.48H4.64v2.32H6.96Zm3.48,3.48H8.12v2.32h2.32Zm3.48,0H11.6v2.32h2.32Z"/></svg>