<svg xmlns="http://www.w3.org/2000/svg" width="42.542" height="42.628" viewBox="0 0 42.542 42.628">
  <g id="Group_2244" data-name="Group 2244" transform="translate(-1128.551 -467.422)">
    <path id="Path_513" data-name="Path 513" d="M683.253,1188.99c-.215.473-.663.993-.579,1.4a1.557,1.557,0,0,0,1.092,1,58.35,58.35,0,0,0,6.263-.009,2.858,2.858,0,0,0,1.74-1.011c2.038-2.4,3.995-4.875,5.974-7.328.979-1.213,2.205-1.5,3.237-.75s1.117,2,.271,3.317a8.543,8.543,0,0,0-.434.874c-.735,1.052-1.452,2.118-2.208,3.155-1.618,2.218-3.256,4.422-4.885,6.631a8.415,8.415,0,0,1-6,1.97c-3.854-.066-7.711-.037-11.566,0a1.357,1.357,0,0,1-1.419-.9q-2.85-5.827-5.795-11.607a1.08,1.08,0,0,1,.291-1.574c3.49-3.035,7.541-3.767,10.748-1.369a8,8,0,0,0,5.6,1.532c.806-.039,1.617.015,2.424-.016,1.11-.042,2.145.033,2.724,1.2s0,2.024-.685,2.873l.042-.035a17.08,17.08,0,0,1-1.822.237c-1.314.036-2.632-.022-3.945.031a3.741,3.741,0,0,0-1.114.428Z" transform="translate(468.177 -693.871)" fill="none" stroke="#000" stroke-width="2"/>
    <path id="Path_514" data-name="Path 514" d="M646.762,1216.1a14.569,14.569,0,0,1-1.223,1.545,4.234,4.234,0,0,1-1.155.615c-1.161.567-1.46.462-2.043-.7q-3.321-6.62-6.641-13.24c-.672-1.341-.574-1.625.765-2.288.328-.162.65-.341.991-.472a2.117,2.117,0,0,1,2.866,1.073q3.042,6.018,6.023,12.065A9.965,9.965,0,0,1,646.762,1216.1Z" transform="translate(494.244 -709.468)" fill="none" stroke="#000" stroke-width="2"/>
    <path id="Path_515" data-name="Path 515" d="M701.987,1140.976c3.387,2.847,7.271,3,10.772-.023a6.974,6.974,0,0,1,1.512,5.8c-.039.269-.616.652-.947.656-3.962.046-7.925.057-11.886-.011a1.494,1.494,0,0,1-1.053-.948A7,7,0,0,1,701.987,1140.976Z" transform="translate(448.577 -662.374)" fill="none" stroke="#000" stroke-width="2"/>
    <path id="Path_516" data-name="Path 516" d="M719.331,1103.8c-2.672,1.676-4.739,1.607-6.526-.218a4.488,4.488,0,0,1-.257-6.093,4.545,4.545,0,0,1,6.029-.995,4.674,4.674,0,0,1,1.6,6.012c-.238.449-.543.862-.817,1.292Z" transform="translate(439.854 -627.148)" fill="none" stroke="#000" stroke-width="2"/>
  </g>
</svg>
