<svg xmlns="http://www.w3.org/2000/svg" width="39.63" height="42.023" viewBox="0 0 39.63 42.023">
  <g id="Group_2242" data-name="Group 2242" transform="translate(-314 -702.499)">
    <path id="Path_507" data-name="Path 507" d="M557.563,1044.956c0-2.324.011-4.649-.008-6.973,0-.569.036-1,.733-1.14a4.568,4.568,0,0,0,3.476-3.245,29.606,29.606,0,0,1,4.956-9.035,10.1,10.1,0,0,0,1.34-3.265,24.473,24.473,0,0,1,1.48-3.833c.736-1.353,1.646-1.526,2.889-.6a5.443,5.443,0,0,1,1.812,5.368,13.915,13.915,0,0,1-1.448,3.228,10.425,10.425,0,0,0-1.351,3.561,2.168,2.168,0,0,0,2.621,2.616c2.319-.422,4.633-.875,6.952-1.3a4.77,4.77,0,0,1,3.872,1.006,3.179,3.179,0,0,1,.909,4.4,1.655,1.655,0,0,0-.113,1.971,3.875,3.875,0,0,1,0,4.416,2.212,2.212,0,0,0-.047,2.493,3.278,3.278,0,0,1-.457,3.962,2.472,2.472,0,0,0-.646,2.443,2.586,2.586,0,0,1-1.781,3.261,12.748,12.748,0,0,1-3.6.76,53.4,53.4,0,0,1-18.6-1.509c-2.976-.751-2.992-.689-2.992-3.754Z" transform="translate(-234.282 -312.286)" fill="none" stroke="#000" stroke-width="3"/>
    <path id="Path_508" data-name="Path 508" d="M539.568,1097.264c0,2.324-.038,4.649.02,6.972.022.889-.268,1.106-1.131,1.109-2.9.01-2.9.046-2.9-2.883,0-3.89.035-7.78-.024-11.669-.015-1.022.188-1.4,1.307-1.379,2.948.053,2.94-.006,2.9,3.014-.022,1.611,0,3.223,0,4.835Z" transform="translate(-220.537 -364.58)" fill="none" stroke="#000" stroke-width="2"/>
  </g>
</svg>
