<svg xmlns="http://www.w3.org/2000/svg" width="25" height="26.065" viewBox="0 0 25 26.065">
  <g id="Group_1802" data-name="Group 1802" transform="translate(1725 449.065)">
    <path id="Path_499" data-name="Path 499" d="M28.721,23.7H15.344V22.033H28.721Zm0,1.672H15.344v1.672H28.721Zm3.344-10.033V32.065H12V15.344h3.344V13.672a1.672,1.672,0,0,1,3.344,0v1.672h6.688V13.672a1.672,1.672,0,0,1,3.344,0v1.672Zm-6.688,1.672a1.672,1.672,0,0,0,3.344,0Zm-10.033,0a1.672,1.672,0,0,0,3.344,0Zm15.049,3.344H13.672V30.393H30.393Z" transform="translate(-1737 -461.065)" fill="#fff"/>
    <path id="Path_500" data-name="Path 500" d="M5.5,0A5.5,5.5,0,1,1,0,5.5,5.5,5.5,0,0,1,5.5,0Z" transform="translate(-1711 -436)" fill="#fff"/>
    <text id="_" data-name="+" transform="translate(-1709 -426)" fill="#fff" font-size="14" font-family="GTWalsheimPro-Bold, GT Walsheim Pro Bold" font-weight="700"><tspan x="0" y="0">+</tspan></text>
    <text id="_2" data-name="+" transform="translate(-1709 -426)" font-size="14" font-family="GTWalsheimPro-Bold, GT Walsheim Pro Bold" font-weight="700"><tspan x="0" y="0">+</tspan></text>
  </g>
</svg>
