<svg xmlns="http://www.w3.org/2000/svg" width="22.908" height="21.375" viewBox="0 0 22.908 21.375"><defs><style>.a{fill:#2e73b7;}.b{fill:#19486f;}</style></defs><g transform="translate(0 0)"><g transform="translate(4.583 0)"><rect class="a" width="18.325" height="3.56"/><g transform="translate(0 3.56)"><rect class="b" width="18.325" height="0.942"/></g></g><g transform="translate(0 5.424)"><rect class="a" width="3.249" height="4.19"/><g transform="translate(0 4.19)"><rect class="b" width="3.249" height="0.942"/></g></g><g transform="translate(0 11.484)"><rect class="a" width="3.249" height="3.554"/><g transform="translate(0 3.554)"><rect class="b" width="3.249" height="0.942"/></g></g><g transform="translate(0 16.903)"><rect class="a" width="3.249" height="3.53"/><g transform="translate(0 3.53)"><rect class="b" width="3.249" height="0.942"/></g></g><g transform="translate(4.583 5.424)"><rect class="a" width="18.325" height="4.19"/><g transform="translate(0 4.19)"><rect class="b" width="18.325" height="0.942"/></g></g><g transform="translate(4.583 16.903)"><rect class="a" width="18.325" height="3.53"/><g transform="translate(0 3.53)"><rect class="b" width="18.325" height="0.942"/></g></g><g transform="translate(4.583 11.484)"><rect class="a" width="18.325" height="3.554"/><g transform="translate(0 3.554)"><rect class="b" width="18.325" height="0.942"/></g></g><g transform="translate(0 0)"><rect class="a" width="3.249" height="3.56"/><g transform="translate(0 3.56)"><rect class="b" width="3.249" height="0.942"/></g></g></g></svg>