<svg xmlns="http://www.w3.org/2000/svg" width="20" height="20" viewBox="0 0 20 20">
  <g id="icons" transform="translate(-2 -2)">
    <g id="exit2">
      <path id="Path_515" data-name="Path 515" d="M12,10a2.006,2.006,0,0,0,2-2V4a2,2,0,0,0-4,0V8A2.006,2.006,0,0,0,12,10Z"/>
      <path id="Path_516" data-name="Path 516" d="M19.1,4.9h0A1.366,1.366,0,0,0,18,4.5,1.538,1.538,0,0,0,16.5,6a2.1,2.1,0,0,0,.4,1.1h0a6.8,6.8,0,0,1,2,4.9,7,7,0,0,1-14,0A6.715,6.715,0,0,1,7,7.1H7A1.606,1.606,0,0,0,7.5,6,1.538,1.538,0,0,0,6,4.5a2.1,2.1,0,0,0-1.1.4h0a10,10,0,1,0,14.2,0Z"/>
    </g>
  </g>
</svg>
