<svg xmlns="http://www.w3.org/2000/svg" width="17.489" height="20.191" viewBox="0 0 17.489 20.191"><defs><style>.a{fill:#d9d9d9;}</style></defs><g transform="translate(-0.794 -288.795)"><path class="a" d="M3.436,290.812a1.988,1.988,0,0,0,.239.93,6.524,6.524,0,0,1,3.557-.005,1.989,1.989,0,0,0,.237-.925,2.016,2.016,0,1,0-4.032,0Z" transform="translate(4.076 0)"/><path class="a" d="M8.407,290.121a6.055,6.055,0,0,0-6.054,6.053,16.725,16.725,0,0,1-.825,6.069H15.291a16.725,16.725,0,0,1-.825-6.069,6.058,6.058,0,0,0-6.058-6.053Z" transform="translate(1.132 2.046)"/><path class="a" d="M2.815,295.148a2.019,2.019,0,1,0,0,4.038H16.268a2.019,2.019,0,0,0,0-4.038Z" transform="translate(0 9.8)"/></g></svg>