<svg xmlns="http://www.w3.org/2000/svg" width="19.891" height="19.891" viewBox="0 0 19.891 19.891">
  <g id="Group_1805" data-name="Group 1805" transform="translate(1721.891 289)">
    <path id="Path_504" data-name="Path 504" d="M25.261,25.261v6.63H12V18.63h6.63v3.315h3.315v3.315Zm0-13.261H21.946v3.315h3.315Zm0,6.63H21.946v3.315h3.315Zm3.315,3.315H25.261v3.315h3.315Zm3.315-6.63H28.576V18.63h3.315Z" transform="translate(-1733.891 -301)" fill="#fff"/>
    <path id="Path_505" data-name="Path 505" d="M25.261,25.261v6.63H12V18.63h6.63v3.315h3.315v3.315Zm0-13.261H21.946v3.315h3.315Zm0,6.63H21.946v3.315h3.315Zm3.315,3.315H25.261v3.315h3.315Zm3.315-6.63H28.576V18.63h3.315Z" transform="translate(-1733.891 -301)" fill="#fff"/>
  </g>
</svg>
