<svg xmlns="http://www.w3.org/2000/svg" width="30" height="32.24" viewBox="0 0 30 32.24"><defs><style>.a{fill:#fff;}</style></defs><path class="a" d="M31.244,20.464l-.606-.35a2.3,2.3,0,0,1,0-3.989l.606-.35a3.453,3.453,0,0,0,1.264-4.719L31.357,9.063A3.458,3.458,0,0,0,26.638,7.8l-.606.349a2.3,2.3,0,0,1-3.454-1.994v-.7A3.458,3.458,0,0,0,19.124,2h-2.3a3.458,3.458,0,0,0-3.454,3.454v.7A2.3,2.3,0,0,1,9.913,8.149L9.307,7.8a3.459,3.459,0,0,0-4.72,1.264L3.436,11.057A3.452,3.452,0,0,0,4.7,15.776l.607.35a2.3,2.3,0,0,1,0,3.989l-.606.35a3.452,3.452,0,0,0-1.264,4.718l1.151,1.994a3.458,3.458,0,0,0,4.719,1.264l.606-.349a2.3,2.3,0,0,1,3.454,1.994v.7a3.458,3.458,0,0,0,3.454,3.454h2.3a3.458,3.458,0,0,0,3.454-3.454v-.7a2.3,2.3,0,0,1,3.454-1.994l.606.35a3.46,3.46,0,0,0,4.718-1.264l1.151-1.994A3.452,3.452,0,0,0,31.244,20.464ZM17.973,23.877A5.757,5.757,0,1,1,23.73,18.12,5.764,5.764,0,0,1,17.973,23.877Z" transform="translate(-2.972 -2)"/></svg>