<svg xmlns="http://www.w3.org/2000/svg" width="16.014" height="16.013" viewBox="0 0 16.014 16.013">
  <g id="Group_1833" data-name="Group 1833" transform="translate(13375.331 1123.333)">
    <path id="Path_491" data-name="Path 491" d="M.558,4.842a.558.558,0,0,0,.558-.558V1.906L4.707,5.5A.558.558,0,1,0,5.5,4.709L1.9,1.117H4.282A.558.558,0,1,0,4.282,0H.558A.558.558,0,0,0,0,.56V4.284A.558.558,0,0,0,.558,4.842Z" transform="translate(-13375.331 -1123.335)"/>
    <path id="Path_494" data-name="Path 494" d="M144.349,0h-3.724a.558.558,0,1,0,0,1.115H143l-3.591,3.592a.558.558,0,0,0,.789.789l3.591-3.592V4.284a.558.558,0,1,0,1.115,0V.56A.558.558,0,0,0,144.349,0Z" transform="translate(-13504.226 -1123.335)"/>
    <path id="Path_492" data-name="Path 492" d="M142.966,138.682a.558.558,0,0,0-.558.558v2.378l-3.7-3.7a.558.558,0,0,0-.789.789l3.7,3.7h-2.378a.558.558,0,0,0,0,1.115h3.724a.558.558,0,0,0,.558-.558V139.24A.558.558,0,0,0,142.966,138.682Z" transform="translate(-13502.842 -1250.843)"/>
    <path id="Path_493" data-name="Path 493" d="M4.822,137.915l-3.7,3.7V139.24a.558.558,0,1,0-1.115,0v3.724a.558.558,0,0,0,.558.558H4.287a.558.558,0,1,0,0-1.115H1.909l3.7-3.7a.558.558,0,1,0-.789-.789Z" transform="translate(-13375.336 -1250.843)"/>
  </g>
</svg>
