<?xml version="1.0" encoding="utf-8"?>
<!-- Generator: Adobe Illustrator 23.1.0, SVG Export Plug-In . SVG Version: 6.00 Build 0)  -->
<svg version="1.1" id="Layer_1" xmlns="http://www.w3.org/2000/svg" xmlns:xlink="http://www.w3.org/1999/xlink" x="0px" y="0px"
	 viewBox="0 0 172 101.4" style="enable-background:new 0 0 172 101.4;" xml:space="preserve">
<style type="text/css">
	.st0{fill-rule:evenodd;clip-rule:evenodd;}
	.st1{enable-background:new    ;}
</style>
<g>
	<g id="Page-1" transform="translate(-13259.177 -1086.5)">
		<g id="Core" transform="translate(0 0.5)">
			<g id="file-upload">
				<g id="Shape">
					<path class="st0" d="M13340.4,1126.2h9.4v-9.4h6.3l-11-11l-11,11h6.3V1126.2z"/>
				</g>
				<g id="Rectangle-path">
					<rect x="13334.5" y="1128.9" width="21.4" height="3.6"/>
				</g>
			</g>
		</g>
	</g>
	<g class="st1">
		<path d="M26.8,71.9v-10h1.9v9.9c0,2.4,1.4,3.6,3.5,3.6c2.1,0,3.5-1.2,3.5-3.6v-9.9h2v10c0,3.4-2.2,5.3-5.5,5.3
			C29,77.1,26.8,75.3,26.8,71.9z"/>
		<path d="M50.9,71.9c0,3-2,5.2-4.9,5.2c-1.5,0-2.9-0.8-3.5-2v6.3h-1.9V66.9h1.9v1.7c0.6-1.2,2-2,3.6-2C49,66.7,50.9,68.8,50.9,71.9
			z M49,71.9c0-2.1-1.4-3.5-3.3-3.5c-2,0-3.3,1.5-3.3,3.5c0,2.1,1.4,3.5,3.3,3.5C47.7,75.4,49,73.9,49,71.9z"/>
		<path d="M53.3,61.8h1.9v15h-1.9V61.8z"/>
		<path d="M57.6,71.8c0-2.9,1.9-5.2,5.1-5.2c3.2,0,5.1,2.3,5.1,5.2c0,2.9-1.9,5.2-5.1,5.2C59.5,77,57.6,74.7,57.6,71.8z M66,71.8
			c0-2-1.2-3.5-3.3-3.5c-2.1,0-3.3,1.5-3.3,3.5c0,2,1.2,3.5,3.3,3.5C64.8,75.4,66,73.8,66,71.8z"/>
		<path d="M69.6,71.9c0-2.9,1.9-5.2,4.9-5.2c1.6,0,2.8,0.8,3.5,2v-1.7h1.8v9.9H78v-1.7c-0.6,1.2-2,2-3.5,2
			C71.4,77,69.6,74.8,69.6,71.9z M78.1,71.9c0-1.9-1.2-3.5-3.3-3.5c-2,0-3.3,1.5-3.3,3.5c0,2,1.3,3.5,3.3,3.5
			C76.9,75.4,78.1,73.7,78.1,71.9z"/>
		<path d="M92.5,61.8v15h-1.8v-1.7c-0.6,1.2-2,2-3.5,2c-3.1,0-4.9-2.3-4.9-5.2c0-2.9,1.9-5.2,4.9-5.2c1.6,0,2.8,0.8,3.5,2v-1h0v-5.8
			H92.5z M90.7,71.9c0-1.9-1.2-3.5-3.3-3.5c-2,0-3.3,1.5-3.3,3.5c0,2,1.3,3.5,3.3,3.5C89.5,75.4,90.7,73.7,90.7,71.9z"/>
		<path d="M101.2,61.8h1.9v13.1h6.4v1.8h-8.3V61.8z"/>
		<path d="M110.7,71.8c0-2.9,1.9-5.2,5.1-5.2c3.2,0,5.1,2.3,5.1,5.2c0,2.9-1.9,5.2-5.1,5.2C112.7,77,110.7,74.7,110.7,71.8z
			 M119.1,71.8c0-2-1.2-3.5-3.3-3.5c-2.1,0-3.3,1.5-3.3,3.5c0,2,1.2,3.5,3.3,3.5C117.9,75.4,119.1,73.8,119.1,71.8z"/>
		<path d="M133,66.9v9.6c0,1.9-0.6,3.3-1.7,4.1c-0.8,0.6-2,0.9-3.4,0.9c-1.3,0-2.6-0.3-3.5-1c-0.9-0.6-1.4-1.5-1.5-2.6h1.9
			c0.1,1.2,1.1,2,3,2c2.1,0,3.3-1,3.3-3.4v-1.6c-0.6,1.2-2.1,2-3.5,2c-3,0-4.9-2.3-4.9-5.2c0-2.9,2-5.2,4.9-5.2c1.5,0,2.8,0.7,3.5,2
			v-1.7H133z M131.2,71.9c0-1.9-1.3-3.5-3.3-3.5c-1.9,0-3.3,1.5-3.3,3.5c0,2,1.3,3.5,3.3,3.5C130,75.4,131.2,73.8,131.2,71.9z"/>
		<path d="M135.4,71.8c0-2.9,1.9-5.2,5.1-5.2c3.2,0,5.1,2.3,5.1,5.2c0,2.9-1.9,5.2-5.1,5.2C137.3,77,135.4,74.7,135.4,71.8z
			 M143.8,71.8c0-2-1.2-3.5-3.3-3.5c-2.1,0-3.3,1.5-3.3,3.5c0,2,1.2,3.5,3.3,3.5C142.6,75.4,143.8,73.8,143.8,71.8z"/>
	</g>
</g>
</svg>
