<svg xmlns="http://www.w3.org/2000/svg" width="39" height="39" viewBox="0 0 39 39">
  <g id="Group_2136" data-name="Group 2136" transform="translate(6981 -179)">
    <g id="Ellipse_116" data-name="Ellipse 116" transform="translate(-6981 179)" fill="#fff" stroke="#c5c5c5" stroke-width="1">
      <circle cx="19.5" cy="19.5" r="19.5" stroke="none"/>
      <circle cx="19.5" cy="19.5" r="19" fill="none"/>
    </g>
    <g id="user_1_" data-name="user (1)" transform="translate(-6971.472 185.95)">
      <path id="Path_499" data-name="Path 499" d="M92.837,11.61a5.617,5.617,0,0,0,4.1-1.7,5.617,5.617,0,0,0,1.7-4.1,5.618,5.618,0,0,0-1.7-4.1,5.8,5.8,0,0,0-8.209,0,5.617,5.617,0,0,0-1.7,4.1,5.617,5.617,0,0,0,1.7,4.1A5.618,5.618,0,0,0,92.837,11.61Zm0,0" transform="translate(-82.935 0)" fill="#707070"/>
      <path id="Path_500" data-name="Path 500" d="M20.06,254.207a14.338,14.338,0,0,0-.2-1.523,12,12,0,0,0-.375-1.531,7.563,7.563,0,0,0-.629-1.428,5.389,5.389,0,0,0-.949-1.237,4.185,4.185,0,0,0-1.364-.857,4.712,4.712,0,0,0-1.741-.315,1.767,1.767,0,0,0-.944.4c-.283.184-.614.4-.983.634a5.632,5.632,0,0,1-1.272.56,4.938,4.938,0,0,1-3.111,0,5.618,5.618,0,0,1-1.271-.56c-.366-.234-.7-.447-.984-.634a1.764,1.764,0,0,0-.943-.4,4.706,4.706,0,0,0-1.74.315,4.181,4.181,0,0,0-1.364.857,5.39,5.39,0,0,0-.949,1.237,7.578,7.578,0,0,0-.629,1.428,12.028,12.028,0,0,0-.374,1.531,14.289,14.289,0,0,0-.2,1.523c-.032.461-.048.94-.048,1.423a4,4,0,0,0,1.189,3.028,4.279,4.279,0,0,0,3.063,1.117H15.857a4.278,4.278,0,0,0,3.063-1.117,4,4,0,0,0,1.189-3.028c0-.486-.017-.965-.049-1.424Zm0,0" transform="translate(0 -235.674)" fill="#707070"/>
    </g>
  </g>
</svg>
