<svg xmlns="http://www.w3.org/2000/svg" width="22.965" height="22.976" viewBox="0 0 22.965 22.976">
  <g id="Group_2239" data-name="Group 2239" transform="translate(-304.577 -500.023)">
    <path id="Path_507" data-name="Path 507" d="M557.559,1031.7c0-1.249.006-2.5,0-3.748,0-.306.019-.54.394-.613a2.455,2.455,0,0,0,1.869-1.744,15.914,15.914,0,0,1,2.664-4.857,5.431,5.431,0,0,0,.72-1.755,13.155,13.155,0,0,1,.8-2.061c.4-.727.885-.82,1.553-.32a2.926,2.926,0,0,1,.974,2.885,7.478,7.478,0,0,1-.779,1.735,5.6,5.6,0,0,0-.726,1.914,1.166,1.166,0,0,0,1.409,1.406c1.247-.227,2.49-.471,3.737-.7a2.564,2.564,0,0,1,2.081.541,1.709,1.709,0,0,1,.489,2.365.889.889,0,0,0-.061,1.059,2.083,2.083,0,0,1,0,2.374,1.189,1.189,0,0,0-.025,1.34,1.762,1.762,0,0,1-.246,2.13,1.329,1.329,0,0,0-.347,1.313,1.39,1.39,0,0,1-.957,1.753,6.849,6.849,0,0,1-1.933.408,28.7,28.7,0,0,1-10-.811c-1.6-.4-1.608-.37-1.608-2.018Z" transform="translate(-246.531 -515.263)" fill="none" stroke="#000" stroke-width="2"/>
    <path id="Path_508" data-name="Path 508" d="M537.7,1093.633c0,1.249-.021,2.5.011,3.748.012.478-.144.595-.608.6-1.557.005-1.557.025-1.557-1.55,0-2.091.019-4.182-.013-6.273-.008-.55.1-.752.7-.741,1.585.029,1.58,0,1.558,1.62-.012.866,0,1.733,0,2.6Z" transform="translate(-229.959 -577.191)" fill="none" stroke="#000" stroke-width="2"/>
  </g>
</svg>
