<svg xmlns="http://www.w3.org/2000/svg" width="15.112" height="16.486" viewBox="0 0 15.112 16.486"><defs><style>.a{fill:#666;}</style></defs><g transform="translate(-12 -12)"><path class="a" d="M13.948,191.89,12,189.941v6.3h2.748V191.09Z" transform="translate(0 -167.755)"/><path class="a" d="M84.981,168.874l-.981.981v6.525h2.748v-5.668Z" transform="translate(-67.879 -147.894)"/><path class="a" d="M156,153.553v5.793h2.748v-8.54Z" transform="translate(-135.757 -130.86)"/><path class="a" d="M229.777,98.566l-.152-.152L228,100.04v9.914h2.748V99.535Z" transform="translate(-203.636 -81.468)"/><path class="a" d="M27.2,12l-4.121,0,1.057,1.06-4.508,4.508-2.378-2.475L12.1,20.248l1.943,1.943,3.174-3.174,2.378,2.475L26.079,15,27.2,16.126Z" transform="translate(-0.091)"/></g></svg>