<svg xmlns="http://www.w3.org/2000/svg" width="24.327" height="24.327" viewBox="0 0 24.327 24.327">
  <path id="check" d="M9.784,16.159a.761.761,0,0,0,.333.629,1.937,1.937,0,0,0,.548.278c.369.054,4.6.506,7.369.8l-.2,1.89c-2.16-.228-7.214-.764-7.507-.818a3.656,3.656,0,0,1-1.281-.578,2.661,2.661,0,0,1-.628-.6l-.009.009L3.85,13.291a.95.95,0,0,0-1.331,1.357l7.053,6.921a2.978,2.978,0,0,0,2.1.858H24.66v1.9H11.67a4.87,4.87,0,0,1-3.43-1.4L1.187,16a2.851,2.851,0,0,1,3.994-4.07L8.2,14.9a2.681,2.681,0,0,1,1.067-1.074A7.694,7.694,0,0,1,18.11,1.242L16.777,2.654a5.8,5.8,0,1,0,2.94,5.192l1.719-1.821a7.692,7.692,0,0,1-2.608,7.6A11.205,11.205,0,0,1,23.679,15.6l.982.7v2.337l-2.088-1.494A9.318,9.318,0,0,0,17.237,15.4h-.118l-6.574,0a.761.761,0,0,0-.761.76ZM11.3,5.673,9.989,7.051l4.145,3.94,7.7-8.158-1.382-1.3L14.061,8.3Zm0,0" transform="translate(-0.333 0)"/>
</svg>
