<svg xmlns="http://www.w3.org/2000/svg" width="30" height="26.69" viewBox="0 0 30 26.69"><defs><style>.a{fill:#fff;}</style></defs><path class="a" d="M31.167,21.652,22.145,6.614a5.851,5.851,0,0,0-4.974-3.1,5.854,5.854,0,0,0-4.974,3.1L3.175,21.652A5.706,5.706,0,0,0,2.816,27.5a5.707,5.707,0,0,0,5.2,2.7H26.328a5.709,5.709,0,0,0,5.2-2.7A5.709,5.709,0,0,0,31.167,21.652Zm-14,3.283a2.365,2.365,0,1,1,2.365-2.364A2.368,2.368,0,0,1,17.171,24.935ZM19.663,13.6c-.017.047-2.138,5.293-2.138,5.293a.38.38,0,0,1-.705,0L14.7,13.65a2.71,2.71,0,0,1-.2-1,2.671,2.671,0,1,1,5.163.954Z" transform="translate(-2.171 -3.511)"/></svg>